<?xml version="1.0"?>
<svg width="640" height="480" xmlns="http://www.w3.org/2000/svg" xmlns:svg="http://www.w3.org/2000/svg">
 <!-- Created with SVG-edit - https://github.com/SVG-Edit/svgedit-->
 <g class="layer">
  <title>Layer 1</title>
  <ellipse cx="175.37" cy="206.12" fill="#98ce98" id="svg_35" rx="149" ry="199.25" stroke="#000000" transform="matrix(1 0 0 1 0 0)"/>
  <circle cx="172.62" cy="85.87" fill="#ffffff" id="svg_36" r="59.99" stroke="#000000" transform="matrix(1 0 0 1 0 0)"/>
  <circle cx="172.62" cy="85.12" fill="#aa313f" id="svg_37" r="42.52" stroke="#000000" transform="matrix(1 0 0 1 0 0)"/>
  <circle cx="174.12" cy="83.62" fill="#000000" id="svg_38" r="32.65" stroke="#000000" transform="matrix(1 0 0 1 0 0)"/>
  <path d="m113.48,79.46c5.71,11.31 103.31,12.27 113.86,0.51c10.55,-11.77 -13.88,-53.36 -55.34,-54.55c-41.46,-1.19 -64.23,42.73 -58.53,54.04z" fill="#191919" id="svg_41" stroke="#000000" transform="matrix(1 0 0 1 0 0)"/>
  <path d="m81.08,217.54l173.83,0.02c27.92,2.06 -22.39,-43.49 -97.51,-38.22c-75.13,5.27 -84.35,36.75 -76.32,38.19z" fill="#7f7f7f" id="svg_42" stroke="#000000" stroke-width="0" transform="matrix(1 0 0 1 0 0)"/>
  <path d="m127.14,261.85c-36.5,-1.31 -24.44,55.47 0.95,55.14c25.39,-0.33 58.71,11.75 82.52,-4.57c23.8,-16.31 51.73,-47.96 -15.87,-48.61c-67.6,-0.65 -31.1,-0.65 -67.6,-1.96z" fill="#ffffff" id="svg_49" stroke="#000000" transform="matrix(1 0 0 1 0 0)"/>
  <path d="m256.83,257.83c-64.04,29.54 331.08,143.61 288.87,-53.97c-42.21,-197.58 -224.83,24.44 -288.87,53.97z" fill="#ffffff" id="svg_50" stroke="#000000" transform="matrix(1 0 0 1 0 0)"/>
  <text fill="#000000" font-family="Serif" font-size="24" id="svg_51" stroke="#000000" stroke-width="0" text-anchor="middle" transform="rotate(-25.5586 435.398 211.301) matrix(3.99106 0 0 4.38456 -1133.46 -740.161)" x="393.09" xml:space="preserve" y="225.08">Hello</text>
 </g>
</svg>